<svg width="14" height="18" viewBox="0 0 14 18" fill="none" xmlns="http://www.w3.org/2000/svg">
<path d="M0 2.24951V1.12451C0 0.502949 0.601936 -0.000488281 1.24269 -0.000488281H12.8295C13.4697 -0.000488281 13.9042 0.502949 13.9042 1.12451C13.9042 1.12451 13.9042 1.55089 13.9042 2.24951H0ZM0 3.37451V16.8745C0 17.5248 0.0382364 17.9995 0.549795 17.9995C0.995888 17.9995 1.74671 17.3493 2.38051 16.8745L7.02451 13.4995L11.6662 16.8745C12.2455 17.2615 12.9877 17.9995 13.4245 17.9995C14.0218 17.9995 13.9586 17.536 13.9882 16.8745C14.0085 16.4217 13.9975 7.61745 13.9928 3.37451H0Z" fill="#111733"/>
</svg>
