<svg width="175" height="167" viewBox="0 0 175 167" fill="none" xmlns="http://www.w3.org/2000/svg">
<path d="M77.6787 153.617C47.5729 147.267 24.6237 124.965 11.3198 89.1005C1.85796 63.5602 0.561975 39.9262 0.516099 38.927L0 28.7063L80.5 0.2146L161 28.7063L160.484 38.927C160.438 39.9147 159.142 63.5602 149.669 89.1005C136.365 124.953 113.427 147.267 83.3099 153.617L80.4885 154.215L77.6787 153.617Z" fill="#89CAF7"/>
<path d="M145 39.8524L81.0058 17.2146L17 39.8524C17 39.8524 21.34 125.646 81.0058 138.215C140.672 125.646 145 39.8524 145 39.8524Z" fill="#D2EBFF"/>
<path d="M91.0601 132.435L116.55 128.795H138.96L158.99 132.715L124.53 150.085L91.0601 132.435Z" fill="#073A93"/>
<path d="M137.86 150.785C137.86 150.785 92.76 125.995 87.43 134.115C79.74 145.855 91.49 151.765 133.37 162.965L137.86 150.785Z" fill="#073A93"/>
<path d="M150.29 163.175C151.41 160.475 150.13 157.385 147.43 156.265L137.02 151.955L132.98 161.725L143.39 166.035C146.08 167.155 149.17 165.875 150.29 163.175Z" fill="#1858B5"/>
<path d="M136.35 153.535L144.23 156.795C146.06 157.555 146.93 159.645 146.18 161.475C145.42 163.305 143.32 164.175 141.49 163.415L133.61 160.155L136.35 153.535Z" fill="#489BFF"/>
<path opacity="0.45" d="M133.65 160.075L144.06 164.385C146.48 165.385 149.2 164.455 150.54 162.315C150.47 162.605 150.4 162.895 150.28 163.175C149.16 165.875 146.07 167.155 143.37 166.035L132.96 161.725L133.65 160.075Z" fill="#063272"/>
<path d="M137.1 160.245L138.76 156.225C138.84 156.025 139.08 155.925 139.28 156.005C139.48 156.085 139.58 156.325 139.5 156.525L137.83 160.545C137.75 160.745 137.51 160.845 137.31 160.765C137.11 160.675 137.01 160.445 137.1 160.245Z" fill="#E6E6E6"/>
<path d="M139.55 161.255L141.22 157.235C141.3 157.035 141.54 156.935 141.74 157.015C141.94 157.095 142.04 157.335 141.96 157.535L140.29 161.555C140.21 161.755 139.97 161.855 139.77 161.775C139.56 161.695 139.46 161.455 139.55 161.255Z" fill="#E6E6E6"/>
<path d="M142.24 162.375L143.9 158.355C143.98 158.155 144.22 158.055 144.42 158.135C144.62 158.215 144.72 158.455 144.64 158.655L142.97 162.675C142.89 162.875 142.65 162.975 142.45 162.895C142.26 162.805 142.16 162.575 142.24 162.375Z" fill="#E6E6E6"/>
<path d="M154.2 117.275C153.51 114.895 150.05 110.855 146.99 102.585C143.8 93.9847 130.2 93.0547 130.2 93.0547L124.92 95.8747L119.64 93.0547C119.64 93.0547 106.04 93.9847 102.85 102.585C99.78 110.855 96.33 114.895 95.64 117.275C94.95 119.655 98.69 135.075 109.44 137.265H124.5H125.32H140.38C151.14 135.085 154.89 119.665 154.2 117.275Z" fill="#489BFF"/>
<path d="M130.78 93.1145V97.3445C130.78 97.3445 129.8 102.064 125.2 102.854C120.4 101.785 119.66 97.3445 119.66 97.3445V93.1145H130.78Z" fill="#F49290"/>
<path d="M114.66 84.8046C114.66 84.8046 113.09 74.9246 116.85 73.7246C117.87 73.3946 117.13 70.1346 122.85 70.0946C130.66 70.0446 136.82 68.9846 135.8 84.9446L114.66 84.8046Z" fill="#073A93"/>
<path d="M119.61 85.8946C119.61 84.4046 118.4 83.1946 116.91 83.1946C115.42 83.1946 114.21 84.4046 114.21 85.8946C114.21 87.3846 115.42 88.5946 116.91 88.5946C118.4 88.5946 119.61 87.3846 119.61 85.8946Z" fill="#FFB5B1"/>
<path d="M136.06 85.8946C136.06 84.4046 134.85 83.1946 133.36 83.1946C131.87 83.1946 130.66 84.4046 130.66 85.8946C130.66 87.3846 131.87 88.5946 133.36 88.5946C134.85 88.5946 136.06 87.3846 136.06 85.8946Z" fill="#FFB5B1"/>
<path d="M134.21 81.3246L134.2 81.3146C134.2 81.3146 134.2 81.3146 134.19 81.3146C134.08 81.2846 131.93 80.5646 131.51 77.7346L130.33 78.0646C127.06 78.9746 123.58 78.9446 120.33 77.9646L119.39 77.7246C118.98 80.5546 116.72 81.2746 116.6 81.3046H116.58L116.51 85.6846C116.51 88.2346 117.58 91.3246 119.31 93.7046C120.71 95.6446 122.98 96.7646 125.36 96.7646C127.75 96.7646 130.02 95.6446 131.42 93.7046C133.14 91.3246 134.22 88.2246 134.22 85.6846V81.3246H134.21Z" fill="#FFB5B1"/>
<path d="M139.41 117.545H110.97C109.39 117.545 108.1 118.825 108.1 120.415V137.465C108.1 139.045 109.38 140.335 110.97 140.335H139.42C141 140.335 142.29 139.055 142.29 137.465V120.415C142.28 118.825 141 117.545 139.41 117.545Z" fill="#D2EBFF"/>
<path d="M125.09 132.255C127.051 132.255 128.64 130.665 128.64 128.705C128.64 126.744 127.051 125.155 125.09 125.155C123.129 125.155 121.54 126.744 121.54 128.705C121.54 130.665 123.129 132.255 125.09 132.255Z" fill="#89CAF7"/>
<path d="M111.09 150.785C111.09 150.785 156.19 125.995 161.52 134.115C169.21 145.855 157.46 151.765 115.58 162.965L111.09 150.785Z" fill="#073A93"/>
<path d="M98.6601 163.175C97.5401 160.475 98.8201 157.385 101.52 156.265L111.93 151.955L115.97 161.725L105.56 166.035C102.86 167.155 99.7701 165.875 98.6601 163.175Z" fill="#1858B5"/>
<path d="M115.33 160.155L107.45 163.415C105.62 164.175 103.52 163.295 102.76 161.475C102 159.645 102.88 157.555 104.71 156.795L112.59 153.535L115.33 160.155Z" fill="#489BFF"/>
<path opacity="0.45" d="M115.29 160.075L104.88 164.385C102.46 165.385 99.7401 164.455 98.4001 162.315C98.4701 162.605 98.5401 162.895 98.6601 163.175C99.7801 165.875 102.87 167.155 105.57 166.035L115.98 161.725L115.29 160.075Z" fill="#063272"/>
<path d="M111.85 160.245L110.19 156.225C110.11 156.025 109.87 155.925 109.67 156.005C109.47 156.085 109.37 156.325 109.45 156.525L111.11 160.545C111.19 160.745 111.43 160.845 111.63 160.765C111.83 160.675 111.93 160.445 111.85 160.245Z" fill="#E6E6E6"/>
<path d="M109.39 161.255L107.73 157.235C107.65 157.035 107.41 156.935 107.21 157.015C107.01 157.095 106.91 157.335 106.99 157.535L108.65 161.555C108.73 161.755 108.97 161.855 109.17 161.775C109.38 161.695 109.48 161.455 109.39 161.255Z" fill="#E6E6E6"/>
<path d="M106.7 162.375L105.04 158.355C104.96 158.155 104.72 158.055 104.52 158.135C104.32 158.215 104.22 158.455 104.3 158.655L105.96 162.675C106.04 162.875 106.28 162.975 106.48 162.895C106.68 162.805 106.78 162.575 106.7 162.375Z" fill="#E6E6E6"/>
<path d="M171.36 44.4846H112.74C111.08 44.4846 109.72 45.8446 109.72 47.5046V61.4346C109.72 63.0946 111.08 64.4546 112.74 64.4546H171.37C173.03 64.4546 174.39 63.0946 174.39 61.4346V47.5046C174.38 45.8446 173.03 44.4846 171.36 44.4846Z" fill="#FFAA45"/>
<path d="M123.72 61.4546H115.66C114.97 61.4546 114.4 60.8946 114.4 60.1946V54.6846C114.4 53.9946 114.96 53.4246 115.66 53.4246H123.72C124.41 53.4246 124.98 53.9846 124.98 54.6846V60.1946C124.97 60.8946 124.41 61.4546 123.72 61.4546Z" fill="#073A93"/>
<path d="M123.34 52.5247H122.34V50.9447C122.34 49.4747 121.15 48.2847 119.68 48.2847C118.21 48.2847 117.02 49.4747 117.02 50.9447V52.5247H116.02V50.9447C116.02 48.9247 117.66 47.2947 119.68 47.2947C121.7 47.2947 123.33 48.9347 123.33 50.9447V52.5247H123.34Z" fill="#073A93"/>
<path d="M120.8 56.3847C120.8 55.7647 120.3 55.2747 119.69 55.2747C119.08 55.2747 118.58 55.7747 118.58 56.3847C118.58 56.7947 118.81 57.1547 119.15 57.3447L118.76 59.5447H120.63L120.24 57.3447C120.57 57.1547 120.8 56.8047 120.8 56.3847Z" fill="#FFAA45"/>
<path d="M136.68 56.8946C137.691 56.8946 138.51 56.0753 138.51 55.0646C138.51 54.0539 137.691 53.2346 136.68 53.2346C135.669 53.2346 134.85 54.0539 134.85 55.0646C134.85 56.0753 135.669 56.8946 136.68 56.8946Z" fill="#073A93"/>
<path d="M143.66 56.8946C144.671 56.8946 145.49 56.0753 145.49 55.0646C145.49 54.0539 144.671 53.2346 143.66 53.2346C142.649 53.2346 141.83 54.0539 141.83 55.0646C141.83 56.0753 142.649 56.8946 143.66 56.8946Z" fill="#073A93"/>
<path d="M152.46 55.0646C152.46 56.0746 151.64 56.8946 150.63 56.8946C149.62 56.8946 148.8 56.0746 148.8 55.0646C148.8 54.0546 149.62 53.2346 150.63 53.2346C151.64 53.2346 152.46 54.0546 152.46 55.0646Z" fill="#073A93"/>
<path d="M159.44 55.0646C159.44 56.0746 158.62 56.8946 157.61 56.8946C156.6 56.8946 155.78 56.0746 155.78 55.0646C155.78 54.0546 156.6 53.2346 157.61 53.2346C158.62 53.2446 159.44 54.0546 159.44 55.0646Z" fill="#073A93"/>
<path d="M166.42 55.0646C166.42 56.0746 165.6 56.8946 164.59 56.8946C163.58 56.8946 162.76 56.0746 162.76 55.0646C162.76 54.0546 163.58 53.2346 164.59 53.2346C165.6 53.2346 166.42 54.0546 166.42 55.0646Z" fill="#073A93"/>
</svg>
