<svg width="22" height="21" viewBox="0 0 22 21" fill="none" xmlns="http://www.w3.org/2000/svg">
<path d="M10.5703 0C8.49361 0 6.46354 0.615814 4.73683 1.76957C3.01011 2.92332 1.6643 4.5632 0.869582 6.48182C0.074862 8.40045 -0.133073 10.5116 0.272072 12.5484C0.677216 14.5852 1.67724 16.4562 3.1457 17.9246C4.61415 19.3931 6.48507 20.3931 8.52187 20.7982C10.5587 21.2034 12.6699 20.9954 14.5885 20.2007C16.5071 19.406 18.147 18.0602 19.3007 16.3335C20.4545 14.6068 21.0703 12.5767 21.0703 10.5C21.0703 7.71522 19.9641 5.04451 17.9949 3.07538C16.0258 1.10625 13.3551 0 10.5703 0ZM4.78365 17.6307C5.52047 16.8312 6.41499 16.1931 7.41076 15.7567C8.40652 15.3203 9.48194 15.095 10.5691 15.095C11.6564 15.095 12.7318 15.3203 13.7275 15.7567C14.7233 16.1931 15.6178 16.8312 16.3546 17.6307C14.7202 18.9615 12.6769 19.6881 10.5691 19.6881C8.46141 19.6881 6.41811 18.9615 4.78365 17.6307ZM17.3136 16.7323C16.4542 15.8021 15.4115 15.0597 14.2512 14.552C13.0908 14.0443 11.838 13.7822 10.5715 13.7822C9.30495 13.7822 8.05213 14.0443 6.89181 14.552C5.7315 15.0597 4.6888 15.8021 3.82932 16.7323C2.615 15.4209 1.80949 13.7838 1.51146 12.0216C1.21344 10.2593 1.43582 8.44836 2.15138 6.81057C2.86694 5.17277 4.04461 3.77921 5.54016 2.80057C7.0357 1.82193 8.78419 1.30069 10.5715 1.30069C12.3588 1.30069 14.1073 1.82193 15.6028 2.80057C17.0983 3.77921 18.276 5.17277 18.9916 6.81057C19.7071 8.44836 19.9295 10.2593 19.6315 12.0216C19.3335 13.7838 18.528 15.4209 17.3136 16.7323Z" fill="white"/>
<path d="M10.5699 3.9386C9.66115 3.9386 8.77279 4.20811 8.0172 4.71305C7.26162 5.21798 6.67275 5.93565 6.32509 6.7753C5.97742 7.61494 5.88658 8.53882 6.06404 9.4301C6.2415 10.3214 6.6793 11.14 7.32206 11.7824C7.96482 12.4249 8.78367 12.8623 9.67504 13.0393C10.5664 13.2163 11.4902 13.125 12.3297 12.7769C13.1692 12.4288 13.8865 11.8395 14.3911 11.0837C14.8957 10.3279 15.1647 9.43937 15.1643 8.5306C15.1636 7.31251 14.6793 6.14452 13.8178 5.28342C12.9562 4.42232 11.788 3.9386 10.5699 3.9386ZM10.5699 11.8136C9.92116 11.8136 9.28697 11.6212 8.74752 11.2609C8.20807 10.9005 7.78758 10.3883 7.5392 9.78893C7.29083 9.1896 7.22572 8.53009 7.35212 7.89376C7.47852 7.25744 7.79074 6.67288 8.24932 6.21397C8.70789 5.75507 9.29223 5.44244 9.92846 5.31559C10.5647 5.18874 11.2243 5.25337 11.8238 5.50132C12.4233 5.74927 12.9358 6.1694 13.2966 6.70859C13.6573 7.24779 13.8501 7.88184 13.8506 8.5306C13.85 9.40071 13.5042 10.235 12.8892 10.8505C12.2741 11.466 11.44 11.8124 10.5699 11.8136Z" fill="white"/>
</svg>
