<svg width="18" height="18" viewBox="0 0 18 18" fill="none" xmlns="http://www.w3.org/2000/svg">
<path d="M17.6139 10.7213L17.595 10.7064L16.3269 9.7379C16.2466 9.67603 16.1826 9.5965 16.1399 9.50582C16.0973 9.41515 16.0774 9.31592 16.0819 9.21629V8.76395C16.0778 8.66495 16.098 8.56644 16.1407 8.47651C16.1833 8.38659 16.2473 8.3078 16.3273 8.24664L17.595 7.27777L17.6139 7.2629C17.8094 7.10429 17.9405 6.88313 17.984 6.63896C18.0274 6.39479 17.9802 6.14353 17.8509 5.93012L16.1349 3.03838C16.1329 3.03565 16.1312 3.03277 16.1297 3.02977C15.9996 2.81931 15.798 2.65985 15.5599 2.57908C15.3217 2.49831 15.062 2.50132 14.8259 2.5876L14.8118 2.59269L13.3212 3.1769C13.2271 3.21395 13.1253 3.22869 13.0242 3.21992C12.9232 3.21114 12.8257 3.1791 12.7398 3.12642C12.608 3.04556 12.4741 2.96912 12.338 2.89712C12.2498 2.85053 12.1741 2.78439 12.1169 2.70405C12.0597 2.62371 12.0228 2.53141 12.009 2.4346L11.7844 0.885425L11.7795 0.857251C11.7306 0.617302 11.5984 0.401057 11.4051 0.244857C11.2118 0.0886568 10.9692 0.00202197 10.718 -0.000488281H7.28196C7.02726 0.00030549 6.78101 0.0886182 6.5866 0.248892C6.3922 0.409165 6.2621 0.631116 6.21924 0.875642L6.21563 0.897555L5.99183 2.44986C5.97811 2.5464 5.94143 2.63848 5.88472 2.71877C5.82801 2.79907 5.75284 2.86537 5.66518 2.91238C5.52872 2.98397 5.39472 3.05992 5.2634 3.14012C5.17768 3.19247 5.08044 3.22427 4.97965 3.23291C4.87886 3.24155 4.77741 3.22678 4.68362 3.18982L3.1918 2.60286L3.17773 2.59738C2.94127 2.51101 2.68119 2.50811 2.44276 2.58918C2.20432 2.67026 2.00262 2.83018 1.87274 3.04112L1.86751 3.04973L0.149082 5.94342C0.0195582 6.15705 -0.0277156 6.40859 0.0157136 6.65304C0.0591429 6.8975 0.190443 7.11895 0.386135 7.27777L0.405019 7.29264L1.67305 8.26112C1.75335 8.32299 1.81744 8.40253 1.86004 8.4932C1.90265 8.58388 1.92256 8.6831 1.91814 8.78273V9.23508C1.92216 9.33407 1.90201 9.43258 1.85933 9.52251C1.81665 9.61244 1.75267 9.69122 1.67265 9.75238L0.405019 10.7213L0.386135 10.7361C0.190637 10.8947 0.0594433 11.1159 0.0160142 11.3601C-0.0274149 11.6042 0.0197524 11.8555 0.149082 12.0689L1.8651 14.9606C1.86708 14.9634 1.86883 14.9662 1.87033 14.9693C2.00035 15.1797 2.20196 15.3392 2.44013 15.4199C2.6783 15.5007 2.93799 15.4977 3.17412 15.4114L3.18818 15.4063L4.6776 14.8221C4.77168 14.7851 4.87345 14.7703 4.97454 14.7791C5.07562 14.7879 5.17311 14.8199 5.25898 14.8726C5.39076 14.9537 5.52469 15.0302 5.66076 15.1019C5.74899 15.1485 5.82473 15.2146 5.88189 15.295C5.93905 15.3753 5.97602 15.4676 5.98982 15.5644L6.21322 17.1136L6.21804 17.1418C6.26702 17.3821 6.39958 17.5987 6.59339 17.7549C6.78719 17.9111 7.03038 17.9975 7.28196 17.9995H10.718C10.9727 17.9987 11.219 17.9104 11.4134 17.7501C11.6078 17.5899 11.7379 17.3679 11.7807 17.1234L11.7844 17.1015L12.0082 15.5492C12.0221 15.4524 12.0591 15.3602 12.1162 15.2799C12.1732 15.1996 12.2488 15.1334 12.3368 15.0866C12.4742 15.0146 12.6084 14.9383 12.7386 14.8589C12.8243 14.8066 12.9216 14.7748 13.0223 14.7661C13.1231 14.7575 13.2246 14.7722 13.3184 14.8092L14.8102 15.3942L14.8243 15.3997C15.0607 15.4862 15.3208 15.4892 15.5593 15.4081C15.7978 15.327 15.9995 15.167 16.1293 14.9559C16.1309 14.953 16.1326 14.9501 16.1345 14.9473L17.8505 12.056C17.9803 11.8424 18.0277 11.5908 17.9844 11.3462C17.941 11.1016 17.8097 10.8801 17.6139 10.7213ZM12.2107 9.14664C12.1814 9.75261 11.972 10.3372 11.6079 10.8294C11.2438 11.3216 10.7407 11.7002 10.1598 11.9191C9.57887 12.138 8.94516 12.1878 8.33572 12.0625C7.72628 11.9371 7.16737 11.642 6.72695 11.213C6.28654 10.784 5.98359 10.2397 5.85495 9.64611C5.72631 9.05255 5.77751 8.43538 6.00235 7.86964C6.22718 7.30391 6.61595 6.81398 7.12138 6.45944C7.62681 6.1049 8.22713 5.90102 8.84933 5.8726C9.29601 5.85345 9.74191 5.92503 10.1587 6.08279C10.5754 6.24055 10.9539 6.48105 11.27 6.78898C11.5862 7.09692 11.8331 7.46555 11.995 7.87144C12.1569 8.27734 12.2304 8.71161 12.2107 9.14664Z" fill="#111733"/>
</svg>
