<svg width="18" height="18" viewBox="0 0 18 18" fill="none" xmlns="http://www.w3.org/2000/svg">
<path d="M10.7916 12.0846C10.7916 10.9929 11.6801 10.105 12.7713 10.105H16.4667V7.86133C16.4667 6.9871 15.7577 6.27759 14.8829 6.27759H1.58374C0.708988 6.27759 0 6.9871 0 7.86133V16.3079C0 17.1822 0.708988 17.8917 1.58374 17.8917H14.8829C15.7577 17.8917 16.4667 17.1822 16.4667 16.3079V14.0643H12.7713C11.6801 14.0643 10.7916 13.1764 10.7916 12.0846Z" fill="#111733"/>
<path d="M16.4821 10.5759H12.7867C11.9848 10.5759 11.335 11.2258 11.335 12.0277C11.335 12.8296 11.9848 13.4795 12.7867 13.4795H16.4821C17.284 13.4795 17.9339 12.8296 17.9339 12.0277C17.9339 11.2258 17.284 10.5759 16.4821 10.5759ZM13.0475 12.6348C12.7118 12.6348 12.4404 12.3624 12.4404 12.0277C12.4404 11.693 12.7123 11.4206 13.0475 11.4206C13.3827 11.4206 13.6546 11.693 13.6546 12.0277C13.6546 12.3624 13.3833 12.6348 13.0475 12.6348Z" fill="#111733"/>
<path d="M13.2983 5.69253L14.6984 4.29198L10.4054 -0.000488281L4.71289 5.69253H13.2983Z" fill="#111733"/>
<path d="M8.31304 1.34506L5.82446 0.010498L2.77734 5.69243H3.96568L8.31304 1.34506Z" fill="#111733"/>
</svg>
